<svg width="1500" height="1378" viewBox="0 0 1500 1378" fill="none" xmlns="http://www.w3.org/2000/svg">
<rect width="1500" height="1378" fill="#3F3D56"/>
<g clip-path="url(#clip0)">
<path d="M260.797 1045.43C246.883 1041.66 229.95 1026.02 233.575 1004.52C235.373 993.857 242.274 986.955 249.429 982.491C259.326 976.318 270.598 973.991 281.46 973.403C293.989 972.725 306.504 974.435 318.94 976.243C331.216 978.027 343.494 979.625 355.825 980.601C404.077 984.388 452.625 980.781 499.789 969.903C511.43 967.214 523 964.06 534.501 960.441C545.4 957.23 556.055 953.245 566.386 948.514C580.06 941.944 602.297 929.16 600.484 905.483C599.522 892.929 592.135 882.902 584.683 875.916C575.674 867.47 565.248 861.912 555.038 856.516C507.542 831.414 459.954 806.609 412.413 781.658C401.317 775.835 390.147 770.168 379.379 763.344C369.297 756.955 359.262 749.533 351.149 739.271C344.063 730.308 337.73 718.276 337.954 704.825C338.139 693.67 343.211 684.205 349.423 677.13C364.803 659.615 386.56 652.514 406.223 648.794C430.653 644.173 455.437 644.197 479.882 639.734C499.621 636.131 520.711 629.175 536.764 612.874C543.555 606.244 548.358 597.846 550.631 588.628C552.681 578.973 551.684 568.92 547.78 559.856C543.431 549.461 536.495 541.181 529.201 534.4C520.823 526.719 511.32 520.366 501.023 515.56C479.342 505.22 456.543 499.836 434.335 491.902C423.443 488.01 412.442 483.743 402.328 477.059C393.76 471.396 384.426 463.763 379.66 452.412C369.824 428.992 393.288 415.034 406.583 409.747C415.62 406.317 424.928 403.65 434.41 401.775C436.414 401.344 435.564 397.339 433.568 397.768C423.588 399.715 413.807 402.573 404.348 406.307C396.33 409.641 388.058 414.022 381.76 421.561C378.893 424.965 376.773 428.934 375.538 433.211C374.303 437.488 373.98 441.978 374.591 446.388C376.259 457.625 383.51 466.283 390.32 472.555C399.325 480.848 409.593 486.264 420.003 490.679C430.968 495.329 442.164 498.953 453.357 502.507C475.723 509.61 499.093 515.94 519.283 531.054C533.407 541.626 552.594 561.45 547.896 586.021C545.81 596.929 539.477 605.457 532.643 611.729C524.617 618.878 515.361 624.51 505.326 628.352C460.584 646.372 411.342 633.485 367.754 657.961C352.933 666.283 334.931 681.434 334.787 705.274C334.711 717.658 339.672 729.016 345.804 737.994C353.149 748.746 362.66 756.698 372.337 763.343C382.526 770.084 393.106 776.215 404.021 781.702C415.944 787.97 427.87 794.229 439.799 800.48L512.189 838.472L548.157 857.349C559.134 863.11 570.393 868.637 580.374 877.094C588.547 884.019 598.202 895.379 597.368 909.485C596.706 920.688 589.27 928.773 582.475 934.178C573.675 941.177 563.791 945.704 553.957 949.466C542.613 953.805 531.083 957.404 519.531 960.64C495.867 967.26 471.716 971.991 447.305 974.789C422.954 977.594 398.423 978.509 373.931 977.526C361.557 977.027 349.201 976.037 336.865 974.554C324.149 973.021 311.487 970.66 298.738 969.612C287.206 968.664 275.564 968.884 264.207 971.93C254.725 974.473 244.707 979.006 237.509 987.851C232.204 994.603 229.547 1003.06 230.039 1011.64C230.526 1020.2 233.575 1028.41 238.789 1035.21C244.085 1042.16 251.527 1047.16 259.956 1049.43C261.944 1049.97 262.794 1045.96 260.798 1045.43L260.797 1045.43Z" fill="#E6E6E6"/>
<path d="M618.439 1047.32H256.92V1049.82H618.439V1047.32Z" fill="#3F3D56"/>
<path d="M590.59 929.464C603.633 929.464 614.207 918.882 614.207 905.828C614.207 892.775 603.633 882.193 590.59 882.193C577.546 882.193 566.973 892.775 566.973 905.828C566.973 918.882 577.546 929.464 590.59 929.464Z" fill="#E6E6E6"/>
<path d="M345.564 715.803C358.607 715.803 369.181 705.221 369.181 692.168C369.181 679.114 358.607 668.532 345.564 668.532C332.52 668.532 321.947 679.114 321.947 692.168C321.947 705.221 332.52 715.803 345.564 715.803Z" fill="#E6E6E6"/>
<path d="M389.522 953.435C389.522 953.435 369.107 981.115 364.497 985.729C359.888 990.342 358.571 1007.48 358.571 1007.48L366.473 1025.93L361.863 1035.16L326.302 999.569L364.497 942.89L389.522 953.435Z" fill="#FFB8B8"/>
<path d="M476.449 784.055C476.449 784.055 402.556 1009.39 394.654 1014.67C386.751 1019.94 347.833 986.846 336.638 978.937C325.443 971.028 421.133 820.572 421.133 820.572C405.987 771.142 413.229 759.67 413.229 759.67L476.449 784.055Z" fill="#2F2E41"/>
<path d="M360.546 1029.89C360.546 1029.89 360.546 1021.98 363.089 1018.03C365.633 1014.08 370.424 1031.86 370.424 1031.86C370.424 1031.86 399.4 1039.77 386.229 1048.34C373.058 1056.91 334.204 1029.89 323.009 1022.64C311.814 1015.39 315.765 1006.82 321.692 1000.89L333.217 989.354L360.546 1029.89Z" fill="#2F2E41"/>
<path d="M500.157 967.934C500.157 967.934 506.084 985.07 511.352 1001.55C516.62 1018.02 541.645 1026.59 541.645 1026.59L546.255 1038.45L532.426 1045.04L492.254 1035.16C492.254 1035.16 493.571 1021.98 493.571 1017.36C493.571 1012.75 472.498 973.865 472.498 973.865L500.157 967.934Z" fill="#FFB8B8"/>
<path d="M448.132 586.995C463.408 586.995 475.791 574.602 475.791 559.314C475.791 544.027 463.408 531.634 448.132 531.634C432.857 531.634 420.473 544.027 420.473 559.314C420.473 574.602 432.857 586.995 448.132 586.995Z" fill="#FFB8B8"/>
<path d="M432.986 573.814C432.986 577.768 413.229 608.085 413.229 608.085L442.171 621.013L455.376 583.041L432.986 573.814Z" fill="#FFB8B8"/>
<path d="M459.327 718.149C464.761 718.121 469.989 720.227 473.889 724.013C477.789 727.8 480.05 732.965 480.188 738.402L481.059 772.851L485.669 780.76C485.669 780.76 514.032 992.444 514.032 999.035C514.032 1005.63 485.868 1023.8 469.405 1022.48C461.26 1021.83 443 946.947 435.754 905.95C430.596 876.764 425.563 845.001 420.507 821.553C418.819 813.099 416.609 804.758 413.888 796.577C399.4 756.374 424.425 718.149 424.425 718.149H459.327V718.149Z" fill="#2F2E41"/>
<path d="M536.047 1035.49C536.047 1035.49 539.669 1036.48 535.718 1035.16C531.767 1033.84 533.084 1026.59 533.247 1022.91C533.409 1019.22 571.938 1031.2 571.938 1040.43C571.938 1049.66 522.547 1049.66 508.059 1048.34C493.571 1047.02 490.279 1048.34 488.303 1039.11C486.328 1029.89 493.901 1017.03 493.901 1017.03L536.047 1035.49Z" fill="#2F2E41"/>
<path d="M427.04 736.517C432.19 736.517 443.266 723.278 449.063 729.08C453.28 733.299 456.857 737.353 460.014 740.929C469.074 751.194 476.995 760.602 482.5 753.852C483.332 752.832 480.535 755.188 482.867 753.6C483.835 752.94 484.573 751.996 484.981 750.898C485.388 749.8 485.445 748.603 485.142 747.471C477.155 722.429 472.182 698.439 478.533 678.401C479.004 676.81 479.229 675.156 479.2 673.497C479.201 673.255 479.212 673.012 479.234 672.769C479.57 669.071 479.486 655.827 464.323 640.652C450.465 626.783 447.807 618.261 447.456 614.416C447.374 613.52 425.035 590.325 425.035 590.325C423.866 589.834 422.564 589.753 421.343 590.096C420.122 590.439 419.052 591.186 418.309 592.215L411.154 602.061C403.376 617.473 399.981 634.729 401.341 651.942C403.278 674.284 406.641 718.468 409.404 734.406C409.633 735.859 410.402 737.171 411.558 738.079C412.354 738.696 413.304 739.085 414.304 739.204C415.304 739.322 416.318 739.166 417.236 738.751C420.309 737.32 423.651 736.558 427.04 736.517V736.517Z" fill="#DA0463"/>
<path d="M454.77 560.371L449.805 555.12C450.218 582.771 476.286 598.2 476.286 598.2L418.084 592.393L416.613 585.058L413.572 591.098L406.466 589.297L404.421 584.825L400.036 587.213L409.034 551.655C417.921 517.733 445.018 522.709 445.018 522.709C482.959 510.833 478.309 547.05 478.309 547.05L454.77 560.371Z" fill="#2F2E41"/>
<path opacity="0.2" d="M432.603 914.917L422.048 821.486L435.026 908.033L432.603 914.917Z" fill="black"/>
<path d="M413.816 537.711C421.898 537.711 428.451 531.153 428.451 523.064C428.451 514.975 421.898 508.417 413.816 508.417C405.733 508.417 399.181 514.975 399.181 523.064C399.181 531.153 405.733 537.711 413.816 537.711Z" fill="#2F2E41"/>
<path d="M416.14 534.93C416.444 534.929 416.747 534.937 417.056 534.917L417.086 534.915C420.958 534.66 424.57 532.876 427.129 529.957C429.687 527.037 430.982 523.22 430.729 519.345C430.476 515.47 428.695 511.854 425.779 509.292C422.863 506.731 419.05 505.433 415.178 505.684C414.87 505.704 414.57 505.751 414.268 505.789C417.989 505.778 421.575 507.189 424.293 509.732C427.011 512.276 428.657 515.762 428.896 519.478C429.135 523.195 427.948 526.863 425.578 529.734C423.207 532.605 419.832 534.463 416.14 534.93V534.93Z" fill="#2F2E41"/>
<path d="M450.403 567.919C452.929 567.919 454.977 565.05 454.977 561.511C454.977 557.972 452.929 555.103 450.403 555.103C447.877 555.103 445.83 557.972 445.83 561.511C445.83 565.05 447.877 567.919 450.403 567.919Z" fill="#FFB8B8"/>
<path d="M505.177 774.019L523.978 787.335C525.615 788.494 526.968 790.009 527.936 791.766C528.904 793.524 529.462 795.478 529.567 797.481C529.673 799.485 529.324 801.487 528.546 803.336C527.768 805.186 526.582 806.835 525.077 808.16C523.627 809.437 521.916 810.381 520.064 810.928C518.212 811.474 516.263 811.61 514.353 811.326C512.443 811.041 510.618 810.343 509.005 809.28C507.393 808.217 506.031 806.815 505.015 805.172L494.135 787.567L455.849 729.661L471.714 717.979L505.177 774.019Z" fill="#FEB8B8"/>
<path opacity="0.2" d="M474.983 722.125C475.059 732.388 464.924 741.299 450.61 742.588L417.774 672.763C414.327 665.435 413.036 657.276 414.052 649.24C415.067 641.204 418.348 633.623 423.509 627.384V627.384L456.656 667.699C457.686 685.224 465.157 703.389 474.983 722.125Z" fill="black"/>
<path d="M474.983 717.659C475.058 727.921 469.387 734.6 455.073 735.889L422.236 666.064C418.79 658.735 417.499 650.576 418.515 642.54C419.53 634.504 422.81 626.924 427.971 620.685V620.685L461.119 660.999C462.148 678.525 465.157 698.923 474.983 717.659Z" fill="#DA0463"/>
<path d="M1263.54 584.625H1227.93C1225.19 584.749 1222.53 585.66 1220.28 587.25C1218.04 588.839 1216.29 591.042 1215.26 593.594L1207.19 616.864L1200.73 634.882L1191.68 660.979C1190.74 664.095 1189.47 667.101 1187.89 669.948C1186.25 667.091 1184.95 664.054 1184.02 660.898L1175.38 634.962C1173.68 629.953 1170.86 621.873 1169.08 616.864L1161.01 593.594C1159.97 591.029 1158.21 588.819 1155.95 587.228C1153.69 585.638 1151.01 584.734 1148.25 584.626H1011.33C1010.07 584.626 1008.84 584.872 1007.68 585.351C1006.52 585.83 1005.47 586.533 1004.59 587.418C1003.71 588.303 1003 589.354 1002.52 590.511C1002.05 591.668 1001.8 592.908 1001.8 594.16V648.536C1001.8 651.086 1000.79 653.532 998.986 655.335C997.184 657.138 994.74 658.151 992.192 658.151H952.471C949.93 658.13 947.498 657.11 945.701 655.312C943.904 653.513 942.885 651.08 942.864 648.536V594.16C942.866 591.699 941.918 589.334 940.218 587.557C938.518 585.78 936.197 584.73 933.741 584.625H900.64C898.106 584.625 895.675 585.627 893.875 587.413C892.076 589.199 891.054 591.624 891.033 594.16V619.288C908.633 641.749 908.633 682.633 891.033 743.554V772.561C891.054 775.097 892.076 777.522 893.875 779.307C895.675 781.093 898.106 782.095 900.64 782.095H933.741C934.992 782.095 936.231 781.848 937.387 781.369C938.542 780.89 939.593 780.188 940.477 779.302C941.362 778.417 942.064 777.366 942.542 776.209C943.021 775.053 943.268 773.813 943.268 772.561V772.561V713.255C943.265 710.774 944.222 708.387 945.937 706.595C947.653 704.803 949.994 703.745 952.471 703.64H992.192C994.719 703.619 997.15 704.603 998.952 706.376C1000.75 708.148 1001.78 710.565 1001.8 713.093L1001.8 713.174V772.48C1001.8 775.008 1002.8 777.434 1004.59 779.222C1006.38 781.01 1008.8 782.014 1011.33 782.014H1122.98C1125.51 782.014 1127.93 781.009 1129.72 779.222C1131.5 777.434 1132.51 775.008 1132.51 772.48V747.917C1132.51 745.389 1131.5 742.964 1129.72 741.176C1127.93 739.388 1125.51 738.383 1122.98 738.383H1063.72C1061.19 738.362 1058.77 737.34 1056.98 735.539C1055.2 733.738 1054.2 731.305 1054.2 728.768V712.609C1054.2 710.073 1055.2 707.639 1056.98 705.839C1058.77 704.038 1061.19 703.015 1063.72 702.994H1099.49C1102.01 702.994 1104.44 701.989 1106.22 700.201C1108.01 698.413 1109.01 695.988 1109.01 693.46V693.46V668.897C1109.01 666.369 1108.01 663.944 1106.22 662.156C1104.44 660.368 1102.01 659.363 1099.49 659.363H1063.72C1061.19 659.342 1058.77 658.32 1056.98 656.519C1055.2 654.718 1054.2 652.284 1054.2 649.748V637.952C1054.17 635.423 1055.16 632.99 1056.93 631.187C1058.7 629.384 1061.11 628.359 1063.64 628.337L1063.72 628.337H1112.16C1114.97 628.488 1117.7 629.373 1120.06 630.904C1122.43 632.435 1124.35 634.558 1125.64 637.063L1157.05 705.337C1159.51 711.122 1160.88 717.313 1161.09 723.597V772.561C1161.09 775.089 1162.09 777.514 1163.88 779.302C1165.66 781.09 1168.09 782.095 1170.61 782.095H1203.71C1206.24 782.116 1208.67 781.132 1210.47 779.36C1212.28 777.587 1213.3 775.17 1213.32 772.642L1213.32 772.561V723.597C1213.54 717.323 1214.88 711.138 1217.28 705.337L1269.11 593.271C1269.69 592.358 1270 591.296 1270 590.213C1270 589.129 1269.68 588.069 1269.1 587.158C1268.51 586.247 1267.67 585.524 1266.69 585.075C1265.7 584.626 1264.61 584.47 1263.54 584.625V584.625Z" fill="url(#paint0_linear)"/>
<path d="M844.934 618.237C832.25 621.675 820.747 628.521 811.672 638.033C801.096 600.866 778.329 544.631 756.127 535.42C753.78 534.328 751.206 533.817 748.621 533.93C746.036 534.042 743.515 534.775 741.272 536.066C727.386 544.146 718.344 570.163 726.256 619.449C695.738 563.537 685.082 563.618 680.157 563.537C677.791 563.57 675.488 564.301 673.535 565.637C671.582 566.974 670.066 568.857 669.177 571.051C665.867 578.404 659.247 601.351 675.393 650.718C655.937 624.055 649.962 620.661 643.1 620.984C640.904 621.114 638.784 621.836 636.965 623.073C635.145 624.311 633.695 626.018 632.766 628.014C626.953 639.002 627.599 666.635 645.684 707.842C639.49 702.372 631.647 699.13 623.401 698.631C621.18 698.787 619.034 699.497 617.158 700.696C615.283 701.896 613.737 703.547 612.663 705.499C605.317 718.992 620.737 756.886 639.79 782.58C655.21 803.668 686.131 836.068 731.019 836.068C737.304 836.058 743.574 835.463 749.749 834.29C751.897 833.909 753.805 832.691 755.056 830.903C756.306 829.114 756.795 826.902 756.417 824.753C756.038 822.603 754.822 820.692 753.035 819.44C751.249 818.187 749.039 817.696 746.891 818.074C746.794 818.091 746.697 818.11 746.601 818.131C709.302 825.402 681.206 804.88 664.171 786.458C638.74 758.906 627.599 725.779 626.953 715.679C632.282 717.861 647.621 726.91 677.493 765.208C678.756 766.976 680.669 768.169 682.811 768.525C684.954 768.881 687.15 768.371 688.916 767.107C690.683 765.843 691.875 763.928 692.231 761.784C692.587 759.64 692.077 757.442 690.814 755.674V755.674C648.832 691.925 644.715 653.303 646.087 640.295C658.439 652.899 689.28 699.116 712.531 734.02C713.7 735.789 715.507 737.037 717.573 737.503C719.64 737.97 721.807 737.618 723.621 736.523C725.435 735.427 726.756 733.672 727.307 731.625C727.858 729.577 727.597 727.396 726.579 725.537C678.138 636.659 679.834 596.26 682.659 582.686C689.925 590.039 709.221 615.652 749.83 703.883C750.736 705.79 752.339 707.275 754.309 708.032C756.278 708.79 758.463 708.761 760.412 707.951C762.361 707.142 763.924 705.615 764.779 703.685C765.635 701.754 765.717 699.569 765.008 697.581C725.61 590.524 742.725 554.246 749.265 550.125C757.742 550.125 781.558 591.008 796.413 644.577C797.301 647.89 798.189 651.122 798.997 654.273C796.912 657.938 795.286 661.846 794.153 665.908C786.079 695.561 778.006 762.865 793.587 781.368C795.138 783.306 797.144 784.829 799.426 785.802C801.708 786.775 804.196 787.167 806.666 786.943C809.794 786.602 812.808 785.57 815.489 783.921C818.17 782.273 820.451 780.048 822.167 777.409C836.618 756.32 828.141 703.398 816.596 657.101C824.461 645.968 835.833 637.802 848.89 633.912C851.68 633.034 854.656 632.932 857.5 633.615C860.343 634.298 862.949 635.741 865.037 637.79C871.657 645.224 883.202 673.018 848.163 771.025C847.803 772.044 847.646 773.124 847.703 774.203C847.759 775.282 848.028 776.339 848.492 777.315C849.431 779.285 851.113 780.801 853.169 781.529C855.224 782.258 857.485 782.139 859.453 781.2C861.421 780.26 862.936 778.577 863.664 776.52C891.598 698.388 895.958 648.052 877.308 626.883C873.25 622.57 868.07 619.475 862.351 617.948C856.631 616.421 850.6 616.521 844.934 618.237V618.237ZM808.604 768.278C808 769.364 807.026 770.196 805.859 770.622C799.804 763.431 799.804 720.85 806.424 685.946C818.938 746.301 811.672 763.996 808.604 768.278V768.278Z" fill="url(#paint1_linear)"/>
<path d="M494.107 328.989L428.531 357.519C425.634 358.783 423.357 361.145 422.199 364.087C421.041 367.029 421.096 370.311 422.352 373.212L442.715 420.09C443.978 422.988 446.338 425.267 449.278 426.426C452.218 427.585 455.497 427.53 458.396 426.273L523.972 397.742C526.869 396.479 529.146 394.116 530.304 391.174C531.462 388.232 531.407 384.951 530.151 382.049L509.788 335.172C508.525 332.273 506.165 329.994 503.225 328.835C500.285 327.676 497.006 327.731 494.107 328.989V328.989ZM496.822 335.239C497.214 335.07 497.626 334.952 498.048 334.886L475.877 376.749L430.341 364.277C430.625 364.078 430.928 363.908 431.246 363.769L496.822 335.239ZM521.257 391.492L455.681 420.022C454.438 420.561 453.033 420.585 451.773 420.088C450.513 419.591 449.502 418.615 448.96 417.373L428.781 370.916L476.71 384.043C477.457 384.247 478.25 384.191 478.961 383.884C479.671 383.576 480.255 383.036 480.617 382.352L503.823 338.535L523.905 384.766C524.444 386.01 524.467 387.416 523.971 388.677C523.474 389.938 522.499 390.95 521.257 391.492H521.257Z" fill="#E6E6E6"/>
</g>
<defs>
<linearGradient id="paint0_linear" x1="595.439" y1="683.334" x2="1274.17" y2="683.334" gradientUnits="userSpaceOnUse">
<stop stop-color="#2D6DD0"/>
<stop offset="0.99" stop-color="#6C139C"/>
</linearGradient>
<linearGradient id="paint1_linear" x1="155790" y1="-1.00214e+07" x2="324789" y2="-1.00214e+07" gradientUnits="userSpaceOnUse">
<stop stop-color="#2D6DD0"/>
<stop offset="0.99" stop-color="#6C139C"/>
</linearGradient>
<clipPath id="clip0">
<rect width="1040" height="722" fill="white" transform="translate(230 328)"/>
</clipPath>
</defs>
</svg>
